name ./resultDataOpenSim/trcMotMarkerGrf/sub09/grf-02-07.mot
datacolumns 19
datarows 20
range 1.45200000 1.52800000
endheader

                time	     ground_force_vx	     ground_force_vy	     ground_force_vz	     ground_force_px	     ground_force_py	     ground_force_pz	   l_ground_force_vx	   l_ground_force_vy	   l_ground_force_vz	   l_ground_force_px	   l_ground_force_py	   l_ground_force_pz	     ground_torque_x	     ground_torque_y	     ground_torque_z	   l_ground_torque_x	   l_ground_torque_y	   l_ground_torque_z	
          1.45200000	        -27.44885225	        440.44610109	        -10.65843389	          1.02243442	          0.00000000	          0.07007857	          0.00000000	          0.00000000	          0.00000000	          0.00000000	          0.00000000	          0.00000000	          0.00000000	          3.00850902	          0.00000000	          0.00000000	          0.00000000	          0.00000000	
          1.45600000	        -23.13770323	        441.71823353	         -9.61427847	          1.02429088	          0.00000000	          0.07003825	          0.00000000	          0.00000000	          0.00000000	          0.00000000	          0.00000000	          0.00000000	          0.00000000	          2.92329476	          0.00000000	          0.00000000	          0.00000000	          0.00000000	
          1.46000000	        -20.25143664	        443.66676933	         -7.78781458	          1.02608539	          0.00000000	          0.06994946	          0.00000000	          0.00000000	          0.00000000	          0.00000000	          0.00000000	          0.00000000	          0.00000000	          2.92568680	          0.00000000	          0.00000000	          0.00000000	          0.00000000	
          1.46400000	        -19.41127179	        446.25040161	         -5.57064363	          1.02792367	          0.00000000	          0.06978954	          0.00000000	          0.00000000	          0.00000000	          0.00000000	          0.00000000	          0.00000000	          0.00000000	          3.01351817	          0.00000000	          0.00000000	          0.00000000	          0.00000000	
          1.46800000	        -20.64775445	        449.39902229	         -3.43880738	          1.02982174	          0.00000000	          0.06955726	          0.00000000	          0.00000000	          0.00000000	          0.00000000	          0.00000000	          0.00000000	          0.00000000	          3.16335591	          0.00000000	          0.00000000	          0.00000000	          0.00000000	
          1.47200000	        -23.39923297	        452.98055818	         -1.86372052	          1.03173088	          0.00000000	          0.06928766	          0.00000000	          0.00000000	          0.00000000	          0.00000000	          0.00000000	          0.00000000	          0.00000000	          3.33521731	          0.00000000	          0.00000000	          0.00000000	          0.00000000	
          1.47600000	        -26.66709655	        456.82304686	         -1.22206804	          1.03354715	          0.00000000	          0.06903469	          0.00000000	          0.00000000	          0.00000000	          0.00000000	          0.00000000	          0.00000000	          0.00000000	          3.48158557	          0.00000000	          0.00000000	          0.00000000	          0.00000000	
          1.48000000	        -29.28649881	        460.78088036	         -1.71979968	          1.03512569	          0.00000000	          0.06884417	          0.00000000	          0.00000000	          0.00000000	          0.00000000	          0.00000000	          0.00000000	          0.00000000	          3.55950430	          0.00000000	          0.00000000	          0.00000000	          0.00000000	
          1.48400000	        -30.24607911	        464.77116206	         -3.34354673	          1.03633412	          0.00000000	          0.06873878	          0.00000000	          0.00000000	          0.00000000	          0.00000000	          0.00000000	          0.00000000	          0.00000000	          3.54286667	          0.00000000	          0.00000000	          0.00000000	          0.00000000	
          1.48800000	        -28.95885878	        468.75306396	         -5.85575403	          1.03709642	          0.00000000	          0.06871351	          0.00000000	          0.00000000	          0.00000000	          0.00000000	          0.00000000	          0.00000000	          0.00000000	          3.43099924	          0.00000000	          0.00000000	          0.00000000	          0.00000000	
          1.49200000	        -25.39968146	        472.70075775	         -8.84744328	          1.03742956	          0.00000000	          0.06874975	          0.00000000	          0.00000000	          0.00000000	          0.00000000	          0.00000000	          0.00000000	          0.00000000	          3.25032512	          0.00000000	          0.00000000	          0.00000000	          0.00000000	
          1.49600000	        -20.08789992	        476.61202364	        -11.83474321	          1.03742375	          0.00000000	          0.06881954	          0.00000000	          0.00000000	          0.00000000	          0.00000000	          0.00000000	          0.00000000	          0.00000000	          3.04828035	          0.00000000	          0.00000000	          0.00000000	          0.00000000	
          1.50000000	        -13.94341396	        480.53508110	        -14.35825630	          1.03721303	          0.00000000	          0.06888837	          0.00000000	          0.00000000	          0.00000000	          0.00000000	          0.00000000	          0.00000000	          0.00000000	          2.88154281	          0.00000000	          0.00000000	          0.00000000	          0.00000000	
          1.50400000	         -8.04402397	        484.57848567	        -16.05487376	          1.03697505	          0.00000000	          0.06891685	          0.00000000	          0.00000000	          0.00000000	          0.00000000	          0.00000000	          0.00000000	          0.00000000	          2.80247319	          0.00000000	          0.00000000	          0.00000000	          0.00000000	
          1.50800000	         -3.32538699	        488.88242258	        -16.70437824	          1.03687407	          0.00000000	          0.06887239	          0.00000000	          0.00000000	          0.00000000	          0.00000000	          0.00000000	          0.00000000	          0.00000000	          2.84768208	          0.00000000	          0.00000000	          0.00000000	          0.00000000	
          1.51200000	         -0.32170517	        493.56788398	        -16.25680640	          1.03699461	          0.00000000	          0.06874596	          0.00000000	          0.00000000	          0.00000000	          0.00000000	          0.00000000	          0.00000000	          0.00000000	          3.03111542	          0.00000000	          0.00000000	          0.00000000	          0.00000000	
          1.51600000	          0.95298119	        498.70625455	        -14.83284870	          1.03731580	          0.00000000	          0.06854511	          0.00000000	          0.00000000	          0.00000000	          0.00000000	          0.00000000	          0.00000000	          0.00000000	          3.34210589	          0.00000000	          0.00000000	          0.00000000	          0.00000000	
          1.52000000	          0.96408212	        504.32431655	        -12.69892521	          1.03776624	          0.00000000	          0.06829297	          0.00000000	          0.00000000	          0.00000000	          0.00000000	          0.00000000	          0.00000000	          0.00000000	          3.74768907	          0.00000000	          0.00000000	          0.00000000	          0.00000000	
          1.52400000	          0.50628144	        510.42485346	        -10.22940935	          1.03823942	          0.00000000	          0.06801863	          0.00000000	          0.00000000	          0.00000000	          0.00000000	          0.00000000	          0.00000000	          0.00000000	          4.19839030	          0.00000000	          0.00000000	          0.00000000	          0.00000000	
          1.52800000	          0.49364570	        516.98926247	         -7.85782186	          1.03861778	          0.00000000	          0.06775035	          0.00000000	          0.00000000	          0.00000000	          0.00000000	          0.00000000	          0.00000000	          0.00000000	          4.63691249	          0.00000000	          0.00000000	          0.00000000	          0.00000000	
